<svg width="43" height="43" viewBox="0 0 43 43" fill="none" xmlns="http://www.w3.org/2000/svg">
<g clip-path="url(#clip0)">
<path d="M42.9176 8.18609C41.332 8.88305 39.6388 9.35784 37.8561 9.57463C39.6729 8.47992 41.0704 6.75455 41.7315 4.69592C40.0276 5.6903 38.1392 6.41413 36.129 6.81726C34.5236 5.09905 32.2357 4.02405 29.6951 4.02405C24.8271 4.02405 20.8801 7.97109 20.8801 12.8337C20.8801 13.5324 20.9607 14.2043 21.1076 14.8475C13.7797 14.5017 7.28492 10.9829 2.93833 5.66342C2.17329 6.95701 1.74508 8.46021 1.74508 10.0978C1.74508 13.1615 3.30383 15.8544 5.66525 17.4365C4.21937 17.3899 2.8595 16.9921 1.67342 16.3328V16.4421C1.67342 20.7152 4.70671 24.2788 8.74333 25.0905C8.00338 25.2893 7.22221 25.3968 6.42133 25.3968C5.85875 25.3968 5.31946 25.3431 4.78017 25.2428C5.91071 28.7419 9.16079 31.2932 13.029 31.3649C10.019 33.7281 6.20454 35.1363 2.09625 35.1363C1.3975 35.1363 0.700542 35.0951 0 35.0163C3.92196 37.5139 8.54267 38.9741 13.5396 38.9741C29.7614 38.9741 38.6212 25.5438 38.6212 13.9158C38.6212 13.5414 38.6212 13.1633 38.5943 12.7871C40.3161 11.5526 41.8193 9.99209 43.0018 8.22192L42.9176 8.18609Z" fill="#F2931B"/>
</g>
<defs>
<clipPath id="clip0">
<rect width="43" height="43" fill="white"/>
</clipPath>
</defs>
</svg>
